<svg xmlns="http://www.w3.org/2000/svg" width="45" height="46" viewBox="0 0 45 46">
  <g id="Logo" transform="translate(-71.751 -55.564)">
    <rect id="Rectangle_541" data-name="Rectangle 541" width="45" height="46" rx="11" transform="translate(71.751 55.564)" fill="#231c51"/>
    <path id="Path_2196" data-name="Path 2196" d="M517.183,381v3.228h6.323v6.2a.067.067,0,0,1-.067.067H517.08l-4.653-9.424h-1.093l-4.654,9.424-1.6,3.249-2.063,4.178h3.77l.55-1.174a5.223,5.223,0,0,1,4.728-3h2.95l1.96,4.178h3.774l-2.063-4.178h4.822v4.178h3.214V384.223h6.274V381Zm-6.915,9.495,1.609-3.431,1.609,3.431Z" transform="translate(-423.262 -310.906)" fill="#fff"/>
  </g>
</svg>
