<svg id="rampion_logo" data-name="rampion logo" xmlns="http://www.w3.org/2000/svg" width="63.089" height="64.351" viewBox="0 0 63.089 64.351">
  <path id="Path_52" data-name="Path 52" d="M73.618,647h37.854a12.624,12.624,0,0,1,12.618,12.618v39.115a12.624,12.624,0,0,1-12.618,12.618H73.618A12.624,12.624,0,0,1,61,698.733V659.618A12.624,12.624,0,0,1,73.618,647Z" transform="translate(-61 -647)" fill="#6b56fd" fill-rule="evenodd"/>
  <g id="Group_52" data-name="Group 52" transform="translate(12.618 11.356)">
    <rect id="Rectangle_40" data-name="Rectangle 40" width="38.674" height="41.952" fill="none"/>
    <g id="Group_51" data-name="Group 51">
      <path id="Path_53" data-name="Path 53" d="M93.385,658.388v4.188a15.275,15.275,0,1,1-6.217.027v-4.195a19.611,19.611,0,0,0,3.169,38.915,19.211,19.211,0,0,0,13.673-5.737,19.721,19.721,0,0,0,5.664-13.852,19.519,19.519,0,0,0-16.29-19.349Z" transform="translate(-71 -655.375)" fill="#fff" fill-rule="evenodd"/>
      <path id="Path_54" data-name="Path 54" d="M86.463,656a.93.93,0,0,1,.929.929v17.693a.929.929,0,0,1-1.859,0V656.929A.93.93,0,0,1,86.463,656Z" transform="translate(-67.195 -656)" fill="#fff" fill-rule="evenodd"/>
      <g id="Group_50" data-name="Group 50" transform="translate(12.519 10.285)">
        <path id="Path_55" data-name="Path 55" d="M80.922,670.709h4.956v-6.543A6.917,6.917,0,0,0,80.922,670.709Z" transform="translate(-80.922 -664.147)" fill="#fff" fill-rule="evenodd"/>
        <path id="Path_56" data-name="Path 56" d="M87.566,664.151v6.563h5.023A6.912,6.912,0,0,0,87.566,664.151Z" transform="translate(-79.183 -664.151)" fill="#fff" fill-rule="evenodd"/>
      </g>
      <path id="Path_57" data-name="Path 57" d="M94.328,670H89.29v1a1.693,1.693,0,0,1-.486,1.19,1.649,1.649,0,0,1-2.35,0A1.693,1.693,0,0,1,85.966,671v-1H80.908c0,.063-.005.127-.005.191v6.61a6.836,6.836,0,0,0,1.965,4.8,6.659,6.659,0,0,0,4.741,1.987h.021a6.747,6.747,0,0,0,6.7-6.79v-6.61c0-.061,0-.125,0-.188Z" transform="translate(-68.408 -652.336)" fill="#fff" fill-rule="evenodd"/>
    </g>
  </g>
</svg>
