<svg id="Stars" xmlns="http://www.w3.org/2000/svg" width="197.912" height="30.285" viewBox="0 0 197.912 30.285">
  <path id="Path_2234" data-name="Path 2234" d="M619.4,299.172l4.921,9.969,11,1.6-7.961,7.761,1.879,10.957-9.84-5.173-9.84,5.173,1.879-10.957-7.961-7.761,11-1.6Z" transform="translate(-603.479 -299.172)" fill="#f8be00" fill-rule="evenodd"/>
  <path id="Path_2235" data-name="Path 2235" d="M619.4,299.172l4.921,9.969,11,1.6-7.961,7.761,1.879,10.957-9.84-5.173-9.84,5.173,1.879-10.957-7.961-7.761,11-1.6Z" transform="translate(-561.961 -299.172)" fill="#f8be00" fill-rule="evenodd"/>
  <path id="Path_2236" data-name="Path 2236" d="M619.4,299.172l4.921,9.969,11,1.6-7.961,7.761,1.879,10.957-9.84-5.173-9.84,5.173,1.879-10.957-7.961-7.761,11-1.6Z" transform="translate(-520.444 -299.172)" fill="#f8be00" fill-rule="evenodd"/>
  <path id="Path_2237" data-name="Path 2237" d="M619.4,299.172l4.921,9.969,11,1.6-7.961,7.761,1.879,10.957-9.84-5.173-9.84,5.173,1.879-10.957-7.961-7.761,11-1.6Z" transform="translate(-478.927 -299.172)" fill="#f8be00" fill-rule="evenodd"/>
  <path id="Path_2238" data-name="Path 2238" d="M619.4,299.172l4.921,9.969,11,1.6-7.961,7.761,1.879,10.957-9.84-5.173-9.84,5.173,1.879-10.957-7.961-7.761,11-1.6Z" transform="translate(-437.409 -299.172)" fill="#f8be00" fill-rule="evenodd"/>
</svg>
